<svg xmlns="http://www.w3.org/2000/svg" viewBox="0 0 48 48"><defs><style>.cls-1{fill:#1a171b;}</style></defs><g id="Layer_2" data-name="Layer 2"><g id="layer_1-2" data-name="layer 1"><path class="cls-1" d="M47.27,4.36H17A6.1,6.1,0,0,0,11.18,0H6.09A6.09,6.09,0,0,0,0,6.09V41.91A6.09,6.09,0,0,0,6.09,48h5.09A6.11,6.11,0,0,0,17,43.64H47.27a.73.73,0,0,0,.73-.73V5.09A.73.73,0,0,0,47.27,4.36ZM15.82,41.91a4.64,4.64,0,0,1-4.64,4.63H6.09a4.64,4.64,0,0,1-4.64-4.63V6.09A4.64,4.64,0,0,1,6.09,1.45h5.09a4.64,4.64,0,0,1,4.64,4.64Zm30.73.27H17.26c0-.09,0-.18,0-.27V6.09c0-.09,0-.18,0-.27H46.55Z"/><path class="cls-1" d="M24.27,15.54h.07a2.95,2.95,0,1,0-.07,0Zm.07-4.43a1.49,1.49,0,0,1,0,3h-.07a1.49,1.49,0,0,1,.07-3Z"/><path class="cls-1" d="M31.91,15.54A2.95,2.95,0,1,0,29,12.6,2.94,2.94,0,0,0,31.91,15.54Zm0-4.43a1.49,1.49,0,1,1-1.49,1.49A1.49,1.49,0,0,1,31.91,11.11Z"/><path class="cls-1" d="M39.51,15.54a2.95,2.95,0,1,0-2.94-2.94A3,3,0,0,0,39.51,15.54Zm0-4.43A1.49,1.49,0,1,1,38,12.6,1.49,1.49,0,0,1,39.51,11.11Z"/><path class="cls-1" d="M24.31,23.14a2.95,2.95,0,1,0-2.95-2.94A2.94,2.94,0,0,0,24.31,23.14Zm0-4.43a1.49,1.49,0,1,1-1.49,1.49A1.49,1.49,0,0,1,24.31,18.71Z"/><path class="cls-1" d="M31.91,23.14A2.95,2.95,0,1,0,29,20.2,2.94,2.94,0,0,0,31.91,23.14Zm0-4.43a1.49,1.49,0,1,1-1.49,1.49A1.49,1.49,0,0,1,31.91,18.71Z"/><path class="cls-1" d="M39.51,23.14a2.95,2.95,0,1,0-2.94-2.94A3,3,0,0,0,39.51,23.14Zm0-4.43A1.49,1.49,0,1,1,38,20.2,1.49,1.49,0,0,1,39.51,18.71Z"/><path class="cls-1" d="M24.31,30.74a2.94,2.94,0,1,0-2.95-2.94A2.94,2.94,0,0,0,24.31,30.74Zm0-4.43a1.49,1.49,0,1,1-1.49,1.49A1.49,1.49,0,0,1,24.31,26.31Z"/><path class="cls-1" d="M31.91,30.74A2.94,2.94,0,1,0,29,27.8,2.94,2.94,0,0,0,31.91,30.74Zm0-4.43a1.49,1.49,0,1,1-1.49,1.49A1.49,1.49,0,0,1,31.91,26.31Z"/><path class="cls-1" d="M39.51,30.74a2.94,2.94,0,1,0-2.94-2.94A3,3,0,0,0,39.51,30.74Zm0-4.43A1.49,1.49,0,1,1,38,27.8,1.49,1.49,0,0,1,39.51,26.31Z"/><path class="cls-1" d="M22.09,38.35h4.43a.73.73,0,0,0,.73-.73V33.18a.72.72,0,0,0-.73-.72H22.09a.73.73,0,0,0-.73.72v4.44A.73.73,0,0,0,22.09,38.35Zm.73-4.44h3v3h-3Z"/><path class="cls-1" d="M31.91,38.35a2.95,2.95,0,1,0-2.94-3A2.95,2.95,0,0,0,31.91,38.35Zm0-4.44a1.49,1.49,0,1,1-1.49,1.49A1.49,1.49,0,0,1,31.91,33.91Z"/><path class="cls-1" d="M37.29,38.35h4.44a.73.73,0,0,0,.73-.73V33.18a.73.73,0,0,0-.73-.72H37.29a.72.72,0,0,0-.72.72v4.44A.73.73,0,0,0,37.29,38.35ZM38,33.91h3v3H38Z"/></g></g></svg>