<svg xmlns="http://www.w3.org/2000/svg" viewBox="0 0 48 44.86"><defs><style>.cls-1{fill:#1a171b;}</style></defs><g id="Layer_2" data-name="Layer 2"><g id="layer_1-2" data-name="layer 1"><path class="cls-1" d="M47.93,43.8l-11-23a.74.74,0,0,0-.47-.39l-4-1.08c2.05-3.29,4.14-7.49,4.14-10.84a8.53,8.53,0,1,0-17.06,0c0,3.35,2.1,7.54,4.14,10.83l-3.83,1-8-2.17a.74.74,0,0,0-.84.37L.09,39.34a.72.72,0,0,0,0,.64.75.75,0,0,0,.48.42L16,44.83a.72.72,0,0,0,.41,0l15.3-4.37,15.31,4.37a.69.69,0,0,0,.2,0,.74.74,0,0,0,.67-1.06ZM28.12,1.48a7.06,7.06,0,0,1,7.06,7c0,4.91-5.28,12.27-7.06,14.6-1.77-2.33-7-9.69-7-14.6A7.05,7.05,0,0,1,28.12,1.48Zm0,25.26c-2.6,0-4.26-1-4.26-1.67,0-.52,1-1.23,2.69-1.52.53.72.89,1.17,1,1.25a.75.75,0,0,0,1.15,0c.06-.08.43-.53,1-1.25,1.71.28,2.75,1,2.75,1.52S30.76,26.74,28.16,26.74ZM15.65,43.18l-13.83-4L12.08,19.81l7,1.89Zm7.2-1.72-5.69,1.63,3.39-21.34.39-.1,3.62-1c.38.57.74,1.1,1.08,1.57-1.93.5-3.22,1.55-3.22,2.83,0,1.79,2.47,3.14,5.74,3.14.28,0,.55,0,.82,0l1.93,11Zm9.55-2.35L30.44,28c2.07-.46,3.46-1.55,3.46-2.9s-1.31-2.36-3.28-2.84c.33-.47.69-1,1.06-1.55l4.1,1.11L45.89,43Z"/><path class="cls-1" d="M32.42,8.6a4.3,4.3,0,1,0-4.3,4.3A4.3,4.3,0,0,0,32.42,8.6Zm-7.11,0a2.82,2.82,0,1,1,2.81,2.82A2.81,2.81,0,0,1,25.31,8.6Z"/></g></g></svg>