<svg xmlns="http://www.w3.org/2000/svg" viewBox="0 0 48 48"><defs><style>.cls-1{fill:#1a171b;}</style></defs><g id="Layer_2" data-name="Layer 2"><g id="layer_1-2" data-name="layer 1"><path class="cls-1" d="M40.46,31.67a3.19,3.19,0,0,0-4,.53A11.07,11.07,0,0,1,34.2,34c-4.39,2.55-8.32-.86-13.81-6.35S11.52,18.22,14,13.84h0a11,11,0,0,1,1.78-2.27c2.64-2.64-.54-5.82-2.64-7.92S7.87-1.64,5.23,1A21,21,0,0,0,2.6,4.2h0C-3,12.58.39,22.71,12.84,35.16,21.42,43.74,28.89,48,35.46,48a14.85,14.85,0,0,0,8.33-2.59A21.21,21.21,0,0,0,47,42.77c2.64-2.64-.54-5.82-2.65-7.93A16.49,16.49,0,0,0,40.46,31.67ZM6.26,2C7.48.81,8.91,1.45,12.13,4.67S16,9.32,14.77,10.54c-.36.37-.69.73-1,1.1h0c-.07-.16-.15-.32-.23-.48a.64.64,0,0,1-.08-.14l-.23-.37-.08-.12c-.1-.16-.22-.32-.34-.48L12.74,10c-.1-.14-.21-.27-.31-.4l-.13-.15L12,9l-.08-.09q-.21-.24-.45-.48l-.12-.13L11,7.93l-.14-.14-.48-.49-.5-.5-.15-.14-.55-.53,0,0-.58-.53-.14-.11C8.19,5.29,8,5.14,7.81,5l0,0c-.21-.16-.43-.31-.64-.45L7,4.41c-.2-.13-.4-.24-.59-.35L6.33,4a6.21,6.21,0,0,0-.66-.28l-.12,0A4.43,4.43,0,0,0,5,3.56l-.08,0C5.31,3,5.77,2.52,6.26,2Zm7.61,32.1C2.06,22.33-1.27,12.84,3.71,5.16l.07,0,.13,0L4,5l.14,0h.4l.17,0,.12,0,.18,0,.12,0,.19.08.12.05.21.1.11.06L6,5.52l.11.07.25.16.1.08L6.76,6a.39.39,0,0,0,.1.08l.28.23.09.08a3.88,3.88,0,0,1,.31.26l.09.08L8,7l.1.09.33.31.11.1.34.33.46.46.53.54.1.1.18.18.14.15.17.19.13.13.18.2.12.13.16.18.12.15.15.17a1,1,0,0,0,.13.16l.12.17a1.83,1.83,0,0,1,.13.16l.11.16.12.16c0,.06.07.11.1.16l.11.16a1.09,1.09,0,0,1,.08.15l.1.16.07.15c0,.05.05.11.08.16l.06.14a1,1,0,0,1,0,.16.65.65,0,0,1,0,.13,1.24,1.24,0,0,1,0,.16l0,.13c0,.05,0,.1,0,.14v.22c-3.06,5.6,1.9,10.56,6.69,15.36s9.78,9.78,15.4,6.67h.06a2.57,2.57,0,0,1,.46.07l.09,0,.48.18.12.06.47.27.15.1a5,5,0,0,1,.47.33,1.09,1.09,0,0,1,.17.13l.48.38.16.14c.17.14.33.29.49.44l.14.13.52.49.08.07.56.56.47.48.09.09.35.36.12.13.29.31.12.14.25.28.13.15.21.25.12.16a2,2,0,0,1,.18.23l.12.15.15.22.1.15.13.2.09.16c0,.06.07.12.1.19a.69.69,0,0,1,.07.15.89.89,0,0,1,.08.17l.06.15a1,1,0,0,0,0,.16l0,.15a.75.75,0,0,1,0,.16s0,.09,0,.13,0,.1,0,.15,0,.09,0,.14a.78.78,0,0,1,0,.14L43,44a.65.65,0,0,1,0,.13s0,.09,0,.13l0,.07C35.15,49.27,25.67,45.94,13.87,34.13ZM46,41.74c-.49.49-1,.95-1.51,1.37a.36.36,0,0,1,0-.1,3.58,3.58,0,0,0-.14-.54s0-.1,0-.15a5.17,5.17,0,0,0-.28-.64l-.06-.12c-.1-.18-.2-.36-.32-.54a.86.86,0,0,0-.1-.16c-.13-.21-.28-.41-.44-.62L43,40.15c-.14-.18-.29-.35-.44-.53l-.13-.15c-.17-.2-.35-.39-.52-.58l0,0-.51-.53-.15-.15-.5-.5-.49-.49a1.14,1.14,0,0,1-.11-.11l-.44-.42-.07-.07-.52-.48h0l-.49-.43-.06,0c-.35-.29-.7-.55-1-.78l0,0a4.94,4.94,0,0,0-.49-.3l0,0a5,5,0,0,0-.52-.26c.36-.3.73-.63,1.09-1,1.22-1.22,2.64-.58,5.87,2.64S47.19,40.52,46,41.74Z"/><path class="cls-1" d="M24.07,19.15h3.34c.07,4.67,4.65,8.45,10.29,8.45A13.06,13.06,0,0,0,40,27.38l3.7,2a.77.77,0,0,0,.34.08.66.66,0,0,0,.34-.08.72.72,0,0,0,.39-.57l.41-3.93A7.75,7.75,0,0,0,48,19.05c0-3.59-2.67-6.65-6.45-7.92V7.57a4,4,0,0,0-4-4H30.33L25.71.14A.72.72,0,0,0,25,.08a.71.71,0,0,0-.4.65V3.54h-.48a4,4,0,0,0-4,4v7.55A4,4,0,0,0,24.07,19.15Zm17.48-4V12.67c3,1.15,5,3.57,5,6.38A6.41,6.41,0,0,1,44.07,24a.7.7,0,0,0-.26.48l-.34,3.14L40.5,26a.73.73,0,0,0-.35-.09l-.15,0a11,11,0,0,1-2.3.24c-4.83,0-8.77-3.13-8.84-7h8.66A4,4,0,0,0,41.55,15.12ZM21.49,7.57A2.58,2.58,0,0,1,24.07,5h1.21A.73.73,0,0,0,26,4.27V2.16l3.66,2.69a.66.66,0,0,0,.43.15h7.43A2.58,2.58,0,0,1,40.1,7.57v7.55a2.59,2.59,0,0,1-2.58,2.58H24.07a2.59,2.59,0,0,1-2.58-2.58Z"/></g></g></svg>